<?xml version="1.0" encoding="UTF-8" standalone="no"?>
<!-- Generator: Adobe Illustrator 21.0.2, SVG Export Plug-In . SVG Version: 6.00 Build 0)  -->

<svg
   xmlns:dc="http://purl.org/dc/elements/1.1/"
   xmlns:cc="http://creativecommons.org/ns#"
   xmlns:rdf="http://www.w3.org/1999/02/22-rdf-syntax-ns#"
   xmlns:svg="http://www.w3.org/2000/svg"
   xmlns="http://www.w3.org/2000/svg"
   xmlns:sodipodi="http://sodipodi.sourceforge.net/DTD/sodipodi-0.dtd"
   xmlns:inkscape="http://www.inkscape.org/namespaces/inkscape"
   version="1.1"
   id="Calque_1"
   x="0px"
   y="0px"
   viewBox="0 0 632.9 552.9"
   style="enable-background:new 0 0 632.9 552.9;"
   xml:space="preserve"
   sodipodi:docname="icon_achats.svg"
   inkscape:version="0.92.3 (2405546, 2018-03-11)"><metadata
   id="metadata19"><rdf:RDF><cc:Work
       rdf:about=""><dc:format>image/svg+xml</dc:format><dc:type
         rdf:resource="http://purl.org/dc/dcmitype/StillImage" /><dc:title></dc:title></cc:Work></rdf:RDF></metadata><defs
   id="defs17" /><sodipodi:namedview
   pagecolor="#ffffff"
   bordercolor="#666666"
   borderopacity="1"
   objecttolerance="10"
   gridtolerance="10"
   guidetolerance="10"
   inkscape:pageopacity="0"
   inkscape:pageshadow="2"
   inkscape:window-width="640"
   inkscape:window-height="480"
   id="namedview15"
   showgrid="false"
   inkscape:zoom="0.42684028"
   inkscape:cx="316.45001"
   inkscape:cy="276.45001"
   inkscape:window-x="0"
   inkscape:window-y="0"
   inkscape:window-maximized="0"
   inkscape:current-layer="Calque_1" />
<style
   type="text/css"
   id="style2">
	.st0{fill:none;stroke:#1D1D1B;stroke-width:10;stroke-linecap:round;stroke-linejoin:round;stroke-miterlimit:10;}
</style>
<g
   id="g12">
	<path
   class="st0"
   d="M72.7,50.8h38.3c11.3,0,21.3,6.9,25.4,17.4L209,256.4c4,10.5,14.1,17.4,25.4,17.4h164.2   c11.5,0,21.7-7.2,25.6-17.9l40.8-112.7c7.1-19.6-7.4-40.4-28.3-40.4h-222"
   id="path4" />
	<circle
   class="st0"
   cx="242.3"
   cy="302.8"
   r="29"
   id="circle6" />
	<circle
   class="st0"
   cx="383.3"
   cy="302.8"
   r="29"
   id="circle8" />
	<path
   class="st0"
   d="M522.5,370.6l-0.1-23.9c0-9.4,7.7-17.1,17.1-16.9l0,0c8.9,0.1,16.2,7.2,16.6,16.1l4.2,91.7   c0.4,9.5-1.5,19-5.7,27.5l0,0c-5.7,11.6-15.2,20.9-27,26.3l-11.8,5.5c-12.7,5.9-27.1,6.8-40.5,2.6l-17.1-5.4   c-13.3-4.2-24.8-12.7-32.7-24.2l-52.1-76.4v0c-1.8-15.6,14.5-27,28.5-19.8l2.4,1.2l-0.7-3.1c-3.3-14.9,13.4-26,25.9-17.2l4,2.8l0,0   c-5.7-15.1,11.3-28.7,24.8-19.8l3,2l-38.6-56.7c-5.4-7.9-3.4-18.7,4.6-24.1l0,0c8-5.5,18.9-3.3,24.3,4.8L522.5,370.6z"
   id="path10" />
</g>
</svg>