<?xml version="1.0" encoding="UTF-8" standalone="no"?>
<!-- Generator: Adobe Illustrator 21.0.2, SVG Export Plug-In . SVG Version: 6.00 Build 0)  -->

<svg
   xmlns:dc="http://purl.org/dc/elements/1.1/"
   xmlns:cc="http://creativecommons.org/ns#"
   xmlns:rdf="http://www.w3.org/1999/02/22-rdf-syntax-ns#"
   xmlns:svg="http://www.w3.org/2000/svg"
   xmlns="http://www.w3.org/2000/svg"
   xmlns:sodipodi="http://sodipodi.sourceforge.net/DTD/sodipodi-0.dtd"
   xmlns:inkscape="http://www.inkscape.org/namespaces/inkscape"
   version="1.1"
   id="Calque_1"
   x="0px"
   y="0px"
   viewBox="0 0 632.9 552.9"
   style="enable-background:new 0 0 632.9 552.9;"
   xml:space="preserve"
   sodipodi:docname="icon_juridique.svg"
   inkscape:version="0.92.3 (2405546, 2018-03-11)"><metadata
   id="metadata37"><rdf:RDF><cc:Work
       rdf:about=""><dc:format>image/svg+xml</dc:format><dc:type
         rdf:resource="http://purl.org/dc/dcmitype/StillImage" /><dc:title></dc:title></cc:Work></rdf:RDF></metadata><defs
   id="defs35" /><sodipodi:namedview
   pagecolor="#ffffff"
   bordercolor="#666666"
   borderopacity="1"
   objecttolerance="10"
   gridtolerance="10"
   guidetolerance="10"
   inkscape:pageopacity="0"
   inkscape:pageshadow="2"
   inkscape:window-width="640"
   inkscape:window-height="480"
   id="namedview33"
   showgrid="false"
   inkscape:zoom="0.42684028"
   inkscape:cx="316.45001"
   inkscape:cy="276.45001"
   inkscape:window-x="0"
   inkscape:window-y="0"
   inkscape:window-maximized="0"
   inkscape:current-layer="Calque_1" />
<style
   type="text/css"
   id="style2">
	.st0{fill:none;stroke:#1D1D1B;stroke-width:10;stroke-miterlimit:10;}
	.st1{fill:none;stroke:#1D1D1B;stroke-width:10;stroke-linejoin:round;stroke-miterlimit:10;}
	.st2{fill:none;stroke:#1D1D1B;stroke-width:10;stroke-linecap:round;stroke-linejoin:round;stroke-miterlimit:10;}
</style>
<g
   id="g30">
	<path
   class="st0"
   d="M293.4,503H68.6v-21.7c0-23,18.6-41.6,41.6-41.6h141.6c23,0,41.6,18.6,41.6,41.6V503z"
   id="path4" />
	<path
   class="st0"
   d="M261.1,441.6H100.9v-23.9c0-5.5,4.5-10,10-10h140.3c5.5,0,10,4.5,10,10V441.6z"
   id="path6" />
	<g
   id="g28">
		<path
   class="st1"
   d="M343.5,170l-74-74c-10.4-10.4-10.4-27.4,0-37.8l0,0c10.4-10.4,27.4-10.4,37.8,0l74,74    c10.4,10.4,10.4,27.4,0,37.8l0,0C370.9,180.4,353.9,180.4,343.5,170z"
   id="path8" />
		<path
   class="st1"
   d="M239.6,273.9l-74-74c-10.4-10.4-10.4-27.4,0-37.8l0,0c10.4-10.4,27.4-10.4,37.8,0l74,74    c10.4,10.4,10.4,27.4,0,37.8l0,0C267.1,284.3,250,284.3,239.6,273.9z"
   id="path10" />
		
			<rect
   x="234.7"
   y="119.3"
   transform="matrix(0.7071 0.7071 -0.7071 0.7071 197.4949 -144.7718)"
   class="st1"
   width="77.7"
   height="93.4"
   id="rect12" />
		<line
   class="st2"
   x1="317.1"
   y1="177.6"
   x2="449.8"
   y2="310.3"
   id="line14" />
		<path
   class="st2"
   d="M498,358.5l60.5,60.5c8.6,8.6,8.6,22.6,0,31.2l0,0c-8.6,8.6-22.6,8.6-31.2,0L309,231.9"
   id="path16" />
		<line
   class="st2"
   x1="468.5"
   y1="328.9"
   x2="479.8"
   y2="340.3"
   id="line18" />
		<line
   class="st2"
   x1="175.1"
   y1="209.5"
   x2="186.4"
   y2="198.2"
   id="line20" />
		<line
   class="st2"
   x1="269.4"
   y1="136.7"
   x2="280.7"
   y2="125.4"
   id="line22" />
		<line
   class="st2"
   x1="254.4"
   y1="151.7"
   x2="257.2"
   y2="148.9"
   id="line24" />
		<line
   class="st2"
   x1="230.1"
   y1="264.6"
   x2="241.4"
   y2="253.3"
   id="line26" />
	</g>
</g>
</svg>