<?xml version="1.0" encoding="UTF-8" standalone="no"?>
<!-- Generator: Adobe Illustrator 21.0.2, SVG Export Plug-In . SVG Version: 6.00 Build 0)  -->

<svg
   xmlns:dc="http://purl.org/dc/elements/1.1/"
   xmlns:cc="http://creativecommons.org/ns#"
   xmlns:rdf="http://www.w3.org/1999/02/22-rdf-syntax-ns#"
   xmlns:svg="http://www.w3.org/2000/svg"
   xmlns="http://www.w3.org/2000/svg"
   xmlns:sodipodi="http://sodipodi.sourceforge.net/DTD/sodipodi-0.dtd"
   xmlns:inkscape="http://www.inkscape.org/namespaces/inkscape"
   version="1.1"
   id="Calque_1"
   x="0px"
   y="0px"
   viewBox="0 0 632.9 552.9"
   style="enable-background:new 0 0 632.9 552.9;"
   xml:space="preserve"
   sodipodi:docname="icon_ressources-humaines.svg"
   inkscape:version="0.92.3 (2405546, 2018-03-11)"><metadata
   id="metadata51"><rdf:RDF><cc:Work
       rdf:about=""><dc:format>image/svg+xml</dc:format><dc:type
         rdf:resource="http://purl.org/dc/dcmitype/StillImage" /><dc:title></dc:title></cc:Work></rdf:RDF></metadata><defs
   id="defs49" /><sodipodi:namedview
   pagecolor="#ffffff"
   bordercolor="#666666"
   borderopacity="1"
   objecttolerance="10"
   gridtolerance="10"
   guidetolerance="10"
   inkscape:pageopacity="0"
   inkscape:pageshadow="2"
   inkscape:window-width="640"
   inkscape:window-height="480"
   id="namedview47"
   showgrid="false"
   inkscape:zoom="0.42684028"
   inkscape:cx="316.45001"
   inkscape:cy="276.45001"
   inkscape:window-x="0"
   inkscape:window-y="0"
   inkscape:window-maximized="0"
   inkscape:current-layer="Calque_1" />
<style
   type="text/css"
   id="style2">
	.st0{fill:none;stroke:#1D1D1B;stroke-width:10;stroke-linecap:round;stroke-linejoin:round;stroke-miterlimit:10;}
</style>
<g
   id="g44">
	<g
   id="g16">
		<path
   class="st0"
   d="M81.8,335.3c11.2-8.9,24.4-17.7,36.6-21.8v-36.8c0,0-2.9-4.7-5.2-11.1"
   id="path4" />
		<path
   class="st0"
   d="M152.2,179.1c-33.8,0-41.6,30.9-41.6,30.9s0,30.9,0,42.5c0,4.5,1.2,9.1,2.6,13"
   id="path6" />
		<path
   class="st0"
   d="M81.8,335.3c-6.4,5.1-12.2,10.2-16.8,14.5c-6.7,6.2-10.4,14.9-10.4,24v22"
   id="path8" />
		<path
   class="st0"
   d="M191.2,265.6c-2.3,6.3-5.2,11.1-5.2,11.1v36.8c12.2,4.1,25.4,12.9,36.6,21.8"
   id="path10" />
		<path
   class="st0"
   d="M249.9,395.7v-22c0-9.1-3.8-17.8-10.4-24c-4.6-4.2-10.4-9.4-16.8-14.5"
   id="path12" />
		<path
   class="st0"
   d="M191.2,265.6c1.4-4,2.6-8.6,2.6-13c0-11.6,0-42.5,0-42.5s-7.7-30.9-41.6-30.9"
   id="path14" />
	</g>
	<g
   id="g30">
		<path
   class="st0"
   d="M410.6,335.3c11.2-8.9,24.4-17.7,36.6-21.8v-36.8c0,0-2.9-4.7-5.2-11.1"
   id="path18" />
		<path
   class="st0"
   d="M481,179.1c-33.8,0-41.6,30.9-41.6,30.9s0,30.9,0,42.5c0,4.5,1.2,9.1,2.6,13"
   id="path20" />
		<path
   class="st0"
   d="M410.6,335.3c-6.4,5.1-12.2,10.2-16.8,14.5c-6.7,6.2-10.4,14.9-10.4,24v22"
   id="path22" />
		<path
   class="st0"
   d="M520,265.6c-2.3,6.3-5.2,11.1-5.2,11.1v36.8c12.2,4.1,25.4,12.9,36.6,21.8"
   id="path24" />
		<path
   class="st0"
   d="M578.6,395.7v-22c0-9.1-3.8-17.8-10.4-24c-4.6-4.2-10.4-9.4-16.8-14.5"
   id="path26" />
		<path
   class="st0"
   d="M520,265.6c1.4-4,2.6-8.6,2.6-13c0-11.6,0-42.5,0-42.5s-7.7-30.9-41.6-30.9"
   id="path28" />
	</g>
	<path
   class="st0"
   d="M148.8,126C190.1,80,250,51,316.7,51c68.8,0,130.3,30.8,171.7,79.3"
   id="path32" />
	<path
   class="st0"
   d="M481,431c-41.1,43.7-99.5,71-164.2,71c-70.1,0-132.6-31.9-174-82.1"
   id="path34" />
	<line
   class="st0"
   x1="488.7"
   y1="72.9"
   x2="488.7"
   y2="130.9"
   id="line36" />
	<line
   class="st0"
   x1="430.7"
   y1="130.9"
   x2="488.7"
   y2="130.9"
   id="line38" />
	<line
   class="st0"
   x1="142.1"
   y1="477.3"
   x2="142.1"
   y2="419.3"
   id="line40" />
	<line
   class="st0"
   x1="200.1"
   y1="419.3"
   x2="142.1"
   y2="419.3"
   id="line42" />
</g>
</svg>