<?xml version="1.0" encoding="UTF-8" standalone="no"?>
<!-- Generator: Adobe Illustrator 21.0.2, SVG Export Plug-In . SVG Version: 6.00 Build 0)  -->

<svg
   xmlns:dc="http://purl.org/dc/elements/1.1/"
   xmlns:cc="http://creativecommons.org/ns#"
   xmlns:rdf="http://www.w3.org/1999/02/22-rdf-syntax-ns#"
   xmlns:svg="http://www.w3.org/2000/svg"
   xmlns="http://www.w3.org/2000/svg"
   xmlns:sodipodi="http://sodipodi.sourceforge.net/DTD/sodipodi-0.dtd"
   xmlns:inkscape="http://www.inkscape.org/namespaces/inkscape"
   version="1.1"
   id="Calque_1"
   x="0px"
   y="0px"
   viewBox="0 0 632.9 552.9"
   style="enable-background:new 0 0 632.9 552.9;"
   xml:space="preserve"
   sodipodi:docname="icon_consultant.svg"
   inkscape:version="0.92.3 (2405546, 2018-03-11)"><metadata
   id="metadata37"><rdf:RDF><cc:Work
       rdf:about=""><dc:format>image/svg+xml</dc:format><dc:type
         rdf:resource="http://purl.org/dc/dcmitype/StillImage" /><dc:title></dc:title></cc:Work></rdf:RDF></metadata><defs
   id="defs35" /><sodipodi:namedview
   pagecolor="#ffffff"
   bordercolor="#666666"
   borderopacity="1"
   objecttolerance="10"
   gridtolerance="10"
   guidetolerance="10"
   inkscape:pageopacity="0"
   inkscape:pageshadow="2"
   inkscape:window-width="640"
   inkscape:window-height="480"
   id="namedview33"
   showgrid="false"
   inkscape:zoom="0.42684028"
   inkscape:cx="316.45001"
   inkscape:cy="276.45001"
   inkscape:window-x="0"
   inkscape:window-y="0"
   inkscape:window-maximized="0"
   inkscape:current-layer="g30" />
<style
   type="text/css"
   id="style2">
	.st0{fill:none;stroke:#000000;stroke-width:10;stroke-linecap:round;stroke-linejoin:round;stroke-miterlimit:10;}
</style>
<g
   id="g30">
	<g
   id="g16">
		<g
   id="g8">
			<path
   class="st0"
   d="M289.4,285.7h54.7l-19.6,28c-3.8,5.4-11.7,5.4-15.4,0L289.4,285.7z"
   id="path4" />
			<polyline
   class="st0"
   points="334.1,301.7 343.4,458.7 316.8,482 290.1,458.7 299.4,301.7    "
   id="polyline6" />
		</g>
		<g
   id="g14">
			<path
   class="st0"
   d="M278.1,243h-19.2c-36.9,0-66.8,29.9-66.8,66.8v19.9v100c0,0,124.7,76.7,124.7,76.7l124.7-76.7v-100v-19.9     c0-36.9-29.9-66.8-66.8-66.8h-19.2"
   id="path10" />
			<path
   class="st0"
   d="M313.9,241c0,0-47.3-4.7-60-59.3c0,0-10.7-2.3-10.7-18s-7-27,8.7-26v-24.1c0-14,5.6-27.4,15.5-37.4l0,0     c9.9-9.9,25.9-20.5,48-20.5c22.9,0,41,10.6,50.9,20.5l0,0c9.9,9.9,15.5,23.3,15.5,37.4v24.1c15.7-1,8.7,10.3,8.7,26     s-10.7,18-10.7,18c-5,21.6-15.4,35.4-26.2,44.2c-2.2,1.8-3.5,4.5-3.5,7.3v30.5"
   id="path12" />
		</g>
	</g>
	
	
</g>
</svg>