<?xml version="1.0" encoding="UTF-8" standalone="no"?>
<!-- Generator: Adobe Illustrator 21.0.2, SVG Export Plug-In . SVG Version: 6.00 Build 0)  -->

<svg
   xmlns:dc="http://purl.org/dc/elements/1.1/"
   xmlns:cc="http://creativecommons.org/ns#"
   xmlns:rdf="http://www.w3.org/1999/02/22-rdf-syntax-ns#"
   xmlns:svg="http://www.w3.org/2000/svg"
   xmlns="http://www.w3.org/2000/svg"
   xmlns:sodipodi="http://sodipodi.sourceforge.net/DTD/sodipodi-0.dtd"
   xmlns:inkscape="http://www.inkscape.org/namespaces/inkscape"
   version="1.1"
   id="Calque_1"
   x="0px"
   y="0px"
   viewBox="0 0 632.9 552.9"
   style="enable-background:new 0 0 632.9 552.9;"
   xml:space="preserve"
   sodipodi:docname="icon_operationnel.svg"
   inkscape:version="0.92.3 (2405546, 2018-03-11)"><metadata
   id="metadata23"><rdf:RDF><cc:Work
       rdf:about=""><dc:format>image/svg+xml</dc:format><dc:type
         rdf:resource="http://purl.org/dc/dcmitype/StillImage" /><dc:title></dc:title></cc:Work></rdf:RDF></metadata><defs
   id="defs21" /><sodipodi:namedview
   pagecolor="#ffffff"
   bordercolor="#666666"
   borderopacity="1"
   objecttolerance="10"
   gridtolerance="10"
   guidetolerance="10"
   inkscape:pageopacity="0"
   inkscape:pageshadow="2"
   inkscape:window-width="640"
   inkscape:window-height="480"
   id="namedview19"
   showgrid="false"
   inkscape:zoom="0.42684028"
   inkscape:cx="316.45001"
   inkscape:cy="276.45001"
   inkscape:window-x="0"
   inkscape:window-y="0"
   inkscape:window-maximized="0"
   inkscape:current-layer="Calque_1" />
<style
   type="text/css"
   id="style2">
	.st0{fill:none;stroke:#1D1D1B;stroke-width:10;stroke-linecap:round;stroke-linejoin:round;stroke-miterlimit:10;}
	.st1{fill:#1D1D1B;}
</style>
<g
   id="g16">
	<line
   class="st0"
   x1="453.1"
   y1="252.1"
   x2="533.5"
   y2="242"
   id="line4" />
	<line
   class="st0"
   x1="543.7"
   y1="322.5"
   x2="533.5"
   y2="242"
   id="line6" />
	<path
   class="st0"
   d="M171.9,353.2c-47.9-28.4-80-80.6-80-140.2C92,122.9,164.9,50,254.9,50s162.9,72.9,162.9,162.9   c0,58.8-31.2,110.4-77.9,139"
   id="path8" />
	<polyline
   class="st0"
   points="89.1,502.8 256.1,330.3 353.3,431.6 527.2,250.9  "
   id="polyline10" />
	<g
   id="g14">
		<path
   class="st1"
   d="M203.9,224.2c-3.8,0-5.8-1.9-5.8-5.8c0-4,1.9-5.8,5.8-5.8h9.8c-0.2-2.1-0.2-4.1-0.2-6.2    c0-2.6,0.2-5.3,0.3-7.9h-10c-3.8,0-5.8-1.9-5.8-5.8s2.1-5.8,5.8-5.8h11.3c5.7-30.6,25.1-49.8,52.1-49.8c24.9,0,36.8,11.3,43,26.5    c0.7,1.4,0.9,2.6,0.9,3.8c0,3.3-2.2,5.5-5.2,6.7c-1.2,0.3-2.6,0.7-3.8,0.7c-2.7,0-5.3-1.4-6.7-4.6c-5.2-12.2-12.4-18-28.2-18    c-17.9,0-31.3,12.7-36.1,34.9H285c3.8,0,5.8,1.7,5.8,5.7c0,4.1-2.2,6-5.8,6h-55.5c-0.2,2.2-0.3,5-0.3,7.9c0,2.1,0,4.1,0.2,6.2    h46.7c4,0,5.8,1.7,5.8,5.8c0,4-2.2,5.8-5.8,5.8h-45.4c4.1,23.4,17.7,36.8,36.6,36.8c15.6,0,23.2-4.5,28-16.5    c1.5-3.6,4.1-5.3,7.2-5.3c0.9,0,1.9,0.2,2.9,0.5c3.3,0.9,6.2,3.6,6.2,6.9c0,1-0.2,1.9-0.7,2.9c-7,16.8-19.2,26.8-43.6,26.8    c-29,0-47.8-19.6-52.6-52.1H203.9z"
   id="path12" />
	</g>
</g>
</svg>