<?xml version="1.0" encoding="UTF-8" standalone="no"?>
<svg
   xmlns:dc="http://purl.org/dc/elements/1.1/"
   xmlns:cc="http://creativecommons.org/ns#"
   xmlns:rdf="http://www.w3.org/1999/02/22-rdf-syntax-ns#"
   xmlns:svg="http://www.w3.org/2000/svg"
   xmlns="http://www.w3.org/2000/svg"
   xml:space="preserve"
   style="enable-background:new 0 0 632.9 552.9;"
   viewBox="0 0 632.9 552.9"
   y="0px"
   x="0px"
   id="Calque_1"
   version="1.1"><metadata
   id="metadata81"><rdf:RDF><cc:Work
       rdf:about=""><dc:format>image/svg+xml</dc:format><dc:type
         rdf:resource="http://purl.org/dc/dcmitype/StillImage" /><dc:title></dc:title></cc:Work></rdf:RDF></metadata><defs
   id="defs79" />
<style
   id="style2"
   type="text/css">
	.st0{fill:none;stroke:#1D1D1B;stroke-width:7;stroke-linecap:round;stroke-linejoin:round;stroke-miterlimit:10;}
	.st1{fill:none;stroke:#1D1D1B;stroke-width:10;stroke-linecap:round;stroke-linejoin:round;stroke-miterlimit:10;}
</style>
<g
   id="g74">
	<g
   id="g12">
		<g
   id="g8">
			<path
   id="path4"
   d="M311.4,115l8.4-16.4c0.8-1.6,2.4-2.5,4.2-2.5h4.9c4.8,0,9.5,1.7,12.9,5c2.1,2,3.7,4.5,3.7,7.6V157     c0,3.3-0.5,7.5-1.4,10.7c-0.5,1.7-4.2,3.6-8.2,2.8c-7.1-1.4-7.4-1.9-7.4-46.2v91.9c0,0-1,6.6-8.3,6.6c0,0-7.9,0.5-7.9-7.9     c0-8.4-0.8-47.3-0.8-47.3"
   class="st0" />
			<path
   id="path6"
   d="M311.4,115l-8.4-16.4c-0.8-1.6-2.4-2.5-4.2-2.5h-4.9c-4.8,0-9.5,1.7-12.9,5c-2.1,2-3.7,4.5-3.7,7.6V157     c0,3.3,0.5,7.5,1.4,10.7c0.5,1.7,4.2,3.6,8.2,2.8c7.1-1.4,7.4-1.9,7.4-46.2v91.9c0,0,1,6.6,8.3,6.6c0,0,7.9,0.5,7.9-7.9     c0-8.4,0.8-47.3,0.8-47.3"
   class="st0" />
		</g>
		<circle
   id="circle10"
   r="19.2"
   cy="69.8"
   cx="311.4"
   class="st0" />
	</g>
	<g
   id="g26">
		<g
   id="g22">
			<path
   id="path14"
   d="M198.9,502c-0.5-8.5-0.5-21.3-0.5-41"
   class="st0" />
			<path
   id="path16"
   d="M176.8,449.4l10.6-20.8c1-2,3.1-3.2,5.3-3.2h6.2c6,0,12,2.1,16.3,6.3c2.6,2.5,4.7,5.7,4.7,9.7V502"
   class="st0" />
			<path
   id="path18"
   d="M154.8,502c0.4-8.5,0.5-21.8,0.5-41"
   class="st0" />
			<path
   id="path20"
   d="M176.8,449.4l-10.6-20.8c-1-2-3.1-3.2-5.3-3.2h-6.2c-6,0-12,2.1-16.3,6.3c-2.6,2.5-4.7,5.7-4.7,9.7V502"
   class="st0" />
		</g>
		<circle
   id="circle24"
   r="24.2"
   cy="392.2"
   cx="176.8"
   class="st0" />
	</g>
	<g
   id="g40">
		<g
   id="g36">
			<path
   id="path28"
   d="M333.4,502c-0.5-8.5-0.5-21.3-0.5-41"
   class="st0" />
			<path
   id="path30"
   d="M311.4,449.4l10.6-20.8c1-2,3.1-3.2,5.3-3.2h6.2c6,0,12,2.1,16.3,6.3c2.6,2.5,4.7,5.7,4.7,9.7V502"
   class="st0" />
			<path
   id="path32"
   d="M289.4,502c0.4-8.5,0.5-21.8,0.5-41"
   class="st0" />
			<path
   id="path34"
   d="M311.4,449.4l-10.6-20.8c-1-2-3.1-3.2-5.3-3.2h-6.2c-6,0-12,2.1-16.3,6.3c-2.6,2.5-4.7,5.7-4.7,9.7V502"
   class="st0" />
		</g>
		<circle
   id="circle38"
   r="24.2"
   cy="392.2"
   cx="311.4"
   class="st0" />
	</g>
	<g
   id="g54">
		<g
   id="g50">
			<path
   id="path42"
   d="M333.4,502c-0.5-8.5-0.5-21.3-0.5-41"
   class="st0" />
			<path
   id="path44"
   d="M311.4,449.4l10.6-20.8c1-2,3.1-3.2,5.3-3.2h6.2c6,0,12,2.1,16.3,6.3c2.6,2.5,4.7,5.7,4.7,9.7V502"
   class="st0" />
			<path
   id="path46"
   d="M289.4,502c0.4-8.5,0.5-21.8,0.5-41"
   class="st0" />
			<path
   id="path48"
   d="M311.4,449.4l-10.6-20.8c-1-2-3.1-3.2-5.3-3.2h-6.2c-6,0-12,2.1-16.3,6.3c-2.6,2.5-4.7,5.7-4.7,9.7V502"
   class="st0" />
		</g>
		<circle
   id="circle52"
   r="24.2"
   cy="392.2"
   cx="311.4"
   class="st0" />
	</g>
	<g
   id="g68">
		<g
   id="g64">
			<path
   id="path56"
   d="M477.9,502c-0.5-8.5-0.5-21.3-0.5-41"
   class="st0" />
			<path
   id="path58"
   d="M455.9,449.4l10.6-20.8c1-2,3.1-3.2,5.3-3.2h6.2c6,0,12,2.1,16.3,6.3c2.6,2.5,4.7,5.7,4.7,9.7V502"
   class="st0" />
			<path
   id="path60"
   d="M433.9,502c0.4-8.5,0.5-21.8,0.5-41"
   class="st0" />
			<path
   id="path62"
   d="M455.9,449.4l-10.6-20.8c-1-2-3.1-3.2-5.3-3.2h-6.2c-6,0-12,2.1-16.3,6.3c-2.6,2.5-4.7,5.7-4.7,9.7V502"
   class="st0" />
		</g>
		<circle
   id="circle66"
   r="24.2"
   cy="392.2"
   cx="455.9"
   class="st0" />
	</g>
	<line
   id="line70"
   y2="342.3"
   x2="311.4"
   y1="247"
   x1="311.4"
   class="st1" />
	<path
   id="path72"
   d="M455.9,342.3L455.9,342.3c0-28.9-23.4-52.3-52.3-52.3H219.2c-28.9,0-52.3,23.4-52.3,52.3v0"
   class="st1" />
</g>
</svg>