<?xml version="1.0" encoding="UTF-8" standalone="no"?>
<!-- Generator: Adobe Illustrator 21.0.2, SVG Export Plug-In . SVG Version: 6.00 Build 0)  -->

<svg
   xmlns:dc="http://purl.org/dc/elements/1.1/"
   xmlns:cc="http://creativecommons.org/ns#"
   xmlns:rdf="http://www.w3.org/1999/02/22-rdf-syntax-ns#"
   xmlns:svg="http://www.w3.org/2000/svg"
   xmlns="http://www.w3.org/2000/svg"
   xmlns:sodipodi="http://sodipodi.sourceforge.net/DTD/sodipodi-0.dtd"
   xmlns:inkscape="http://www.inkscape.org/namespaces/inkscape"
   version="1.1"
   id="Calque_1"
   x="0px"
   y="0px"
   viewBox="0 0 632.9 552.9"
   style="enable-background:new 0 0 632.9 552.9;"
   xml:space="preserve"
   sodipodi:docname="icon_gestion-projet.svg"
   inkscape:version="0.92.3 (2405546, 2018-03-11)"><metadata
   id="metadata45"><rdf:RDF><cc:Work
       rdf:about=""><dc:format>image/svg+xml</dc:format><dc:type
         rdf:resource="http://purl.org/dc/dcmitype/StillImage" /><dc:title></dc:title></cc:Work></rdf:RDF></metadata><defs
   id="defs43" /><sodipodi:namedview
   pagecolor="#ffffff"
   bordercolor="#666666"
   borderopacity="1"
   objecttolerance="10"
   gridtolerance="10"
   guidetolerance="10"
   inkscape:pageopacity="0"
   inkscape:pageshadow="2"
   inkscape:window-width="640"
   inkscape:window-height="480"
   id="namedview41"
   showgrid="false"
   inkscape:zoom="0.42684028"
   inkscape:cx="316.45001"
   inkscape:cy="276.45001"
   inkscape:window-x="0"
   inkscape:window-y="0"
   inkscape:window-maximized="0"
   inkscape:current-layer="Calque_1" />
<style
   type="text/css"
   id="style2">
	.st0{fill:none;stroke:#1D1D1B;stroke-width:10;stroke-linecap:round;stroke-linejoin:round;stroke-miterlimit:10;}
</style>
<g
   id="g38">
	<g
   id="g26">
		<path
   class="st0"
   d="M552.7,72.3c-83.7,7.4-137.8,93.6-137.8,93.6l11.3,9.5l23.1,19.3l35.5,29.7    C484.7,224.4,560.1,156.1,552.7,72.3z"
   id="path4" />
		<path
   class="st0"
   d="M362.3,161.8c0,0,22.6-50.4,76.8-27l-20,23.9C419.1,158.7,400.6,147.6,362.3,161.8z"
   id="path6" />
		<path
   class="st0"
   d="M498.1,275.4c0,0,45.6-31.1,13-80.4l-20,23.9C491.1,219,505.3,235.3,498.1,275.4z"
   id="path8" />
		<path
   class="st0"
   d="M445.6,231.5l-29.7-24.9c-3.8-3.2-4.3-8.9-1.1-12.8l13.8-16.5l43.6,36.5l-13.8,16.5    C455.1,234.2,449.4,234.7,445.6,231.5z"
   id="path10" />
		<path
   class="st0"
   d="M520.3,79.3c0,0,3,28.7,31.2,26.2"
   id="path12" />
		<path
   class="st0"
   d="M508.2,126.4L508.2,126.4c-3.7-3.1-4.2-8.7-1.1-12.5v0c3.1-3.7,8.7-4.2,12.5-1.1l0,0    c3.7,3.1,4.2,8.7,1.1,12.5l0,0C517.6,129,512,129.5,508.2,126.4z"
   id="path14" />
		<path
   class="st0"
   d="M484.8,154.4L484.8,154.4c-3.7-3.1-4.2-8.7-1.1-12.5v0c3.1-3.7,8.7-4.2,12.5-1.1v0c3.7,3.1,4.2,8.7,1.1,12.5    v0C494.1,157,488.5,157.5,484.8,154.4z"
   id="path16" />
		<path
   class="st0"
   d="M461.3,182.4L461.3,182.4c-3.7-3.1-4.2-8.7-1.1-12.5v0c3.1-3.7,8.7-4.2,12.5-1.1v0c3.7,3.1,4.2,8.7,1.1,12.5    v0C470.7,185,465.1,185.5,461.3,182.4z"
   id="path18" />
		<path
   class="st0"
   d="M381.7,277.5l4.6-12.5c3-8.1,5.3-16.4,7.6-24.7c1.7-6.3,7.2-11.2,14.1-11.8h0c8.8-0.8,16.6,5.8,17.4,14.6v0    c0.6,6.9-3.3,13.2-9.2,16c-7.8,3.7-15.6,7.4-23,11.8L381.7,277.5z"
   id="path20" />
		<line
   class="st0"
   x1="371.3"
   y1="225.7"
   x2="326.4"
   y2="279.4"
   id="line22" />
		<line
   class="st0"
   x1="450.6"
   y1="267.4"
   x2="414.9"
   y2="310.1"
   id="line24" />
	</g>
	<g
   id="g36">
		<line
   class="st0"
   x1="71.6"
   y1="461.1"
   x2="125.8"
   y2="461.8"
   id="line28" />
		<line
   class="st0"
   x1="42.6"
   y1="328.8"
   x2="124.4"
   y2="329.4"
   id="line30" />
		<path
   class="st0"
   d="M196.5,479.5c6.6,0.1,12-5.3,12.1-11.9l1.1-140.2c0.1-6.6-5.3-12-11.9-12.1l-55.8-0.4    c-6.6-0.1-12,5.3-12.1,11.9l-1.1,140.2c-0.1,6.6,5.3,12,11.9,12.1L196.5,479.5z"
   id="path32" />
		<path
   class="st0"
   d="M209.6,332.1l29.1-13.1c9.5-4.3,19.8-6.4,30.2-6.1c0,0,72.6,20.7,98.6,21.2c26,0.5,65,3.5,58,25.5    s-61,33.9-98,28.5c0,0,62.7,4.9,78.9,6.7c16.2,1.7,32.7,0.5,48.5-3.5l110.8-37.9c7.2-2.5,15.1-0.6,20.5,4.8l0,0    c7.2,7.3,5.6,19.6-4.4,32.3c-6.3,8-14.7,14.3-24,18.5l-49.3,22.2c-2,0.9-5.1,2-8.8,3.3c-30.3,10.5-61.9,16.5-93.8,18.3l-21.4,1.1    c-1.4,0.3-2.8,0.5-4.3,0.5l-171.5,1.1"
   id="path34" />
	</g>
</g>
</svg>