<?xml version="1.0" encoding="UTF-8" standalone="no"?>
<!-- Generator: Adobe Illustrator 21.0.2, SVG Export Plug-In . SVG Version: 6.00 Build 0)  -->

<svg
   xmlns:dc="http://purl.org/dc/elements/1.1/"
   xmlns:cc="http://creativecommons.org/ns#"
   xmlns:rdf="http://www.w3.org/1999/02/22-rdf-syntax-ns#"
   xmlns:svg="http://www.w3.org/2000/svg"
   xmlns="http://www.w3.org/2000/svg"
   xmlns:sodipodi="http://sodipodi.sourceforge.net/DTD/sodipodi-0.dtd"
   xmlns:inkscape="http://www.inkscape.org/namespaces/inkscape"
   version="1.1"
   id="Calque_1"
   x="0px"
   y="0px"
   viewBox="0 0 632.9 552.9"
   style="enable-background:new 0 0 632.9 552.9;"
   xml:space="preserve"
   sodipodi:docname="icon_international.svg"
   inkscape:version="0.92.3 (2405546, 2018-03-11)"><metadata
   id="metadata59"><rdf:RDF><cc:Work
       rdf:about=""><dc:format>image/svg+xml</dc:format><dc:type
         rdf:resource="http://purl.org/dc/dcmitype/StillImage" /><dc:title></dc:title></cc:Work></rdf:RDF></metadata><defs
   id="defs57" /><sodipodi:namedview
   pagecolor="#ffffff"
   bordercolor="#666666"
   borderopacity="1"
   objecttolerance="10"
   gridtolerance="10"
   guidetolerance="10"
   inkscape:pageopacity="0"
   inkscape:pageshadow="2"
   inkscape:window-width="640"
   inkscape:window-height="480"
   id="namedview55"
   showgrid="false"
   inkscape:zoom="0.42684028"
   inkscape:cx="316.45001"
   inkscape:cy="276.45001"
   inkscape:window-x="0"
   inkscape:window-y="0"
   inkscape:window-maximized="0"
   inkscape:current-layer="Calque_1" />
<style
   type="text/css"
   id="style2">
	.st0{fill:none;stroke:#1D1D1B;stroke-width:10;stroke-linecap:round;stroke-linejoin:round;stroke-miterlimit:10;}
</style>
<g
   id="g52">
	<path
   class="st0"
   d="M146.9,126c41.3-46,101.2-75,167.9-75c68.8,0,130.3,30.8,171.7,79.3"
   id="path4" />
	<path
   class="st0"
   d="M485.9,431c-41.1,43.7-99.5,71-164.2,71c-70.1,0-132.6-31.9-174-82.1"
   id="path6" />
	<circle
   class="st0"
   cx="316.8"
   cy="275.1"
   r="171.9"
   id="circle8" />
	<path
   class="st0"
   d="M220.2,417.3c27.5-12.7,60.8-20.1,96.6-20.1c35.6,0,68.7,7.3,96.1,19.9"
   id="path10" />
	<path
   class="st0"
   d="M172,368.8c36.7-21.7,88-35.2,144.8-35.2c55.8,0,106.4,13.1,143,34.2"
   id="path12" />
	<path
   class="st0"
   d="M411.6,134.1c-27.5,12.7-60.8,20.1-96.6,20.1c-35.6,0-68.7-7.3-96.1-19.9"
   id="path14" />
	<path
   class="st0"
   d="M459.8,182.7c-36.7,21.7-88,35.2-144.8,35.2c-55.8,0-106.4-13.1-143-34.2"
   id="path16" />
	<ellipse
   class="st0"
   cx="316.8"
   cy="275.1"
   rx="51"
   ry="171.9"
   id="ellipse18" />
	<ellipse
   class="st0"
   cx="316.8"
   cy="275.1"
   rx="128.9"
   ry="171.9"
   id="ellipse20" />
	<circle
   class="st0"
   cx="499"
   cy="144"
   r="14"
   id="circle22" />
	<circle
   class="st0"
   cx="133.3"
   cy="405.9"
   r="14"
   id="circle24" />
	<g
   id="g38">
		<line
   class="st0"
   x1="368.9"
   y1="275.1"
   x2="513.5"
   y2="275.1"
   id="line26" />
		<line
   class="st0"
   x1="340.4"
   y1="275.1"
   x2="351.2"
   y2="275.1"
   id="line28" />
		<line
   class="st0"
   x1="529.9"
   y1="275.1"
   x2="540.8"
   y2="275.1"
   id="line30" />
		<line
   class="st0"
   x1="264.6"
   y1="275.1"
   x2="120"
   y2="275.1"
   id="line32" />
		<line
   class="st0"
   x1="103.6"
   y1="275.1"
   x2="92.7"
   y2="275.1"
   id="line34" />
		<line
   class="st0"
   x1="283"
   y1="275.1"
   x2="293.8"
   y2="275.1"
   id="line36" />
	</g>
	<g
   id="g50">
		<line
   class="st0"
   x1="316.8"
   y1="223"
   x2="316.8"
   y2="78.3"
   id="line40" />
		<line
   class="st0"
   x1="316.8"
   y1="251.5"
   x2="316.8"
   y2="240.6"
   id="line42" />
		<line
   class="st0"
   x1="316.8"
   y1="327.2"
   x2="316.8"
   y2="471.9"
   id="line44" />
		<line
   class="st0"
   x1="316.8"
   y1="275.9"
   x2="316.8"
   y2="274.5"
   id="line46" />
		<line
   class="st0"
   x1="316.8"
   y1="308.9"
   x2="316.8"
   y2="298"
   id="line48" />
	</g>
</g>
</svg>